<svg xmlns="http://www.w3.org/2000/svg" viewBox="0 0 512 512">
  <defs>
    <linearGradient id="bg" x1="0%" y1="0%" x2="100%" y2="100%">
      <stop offset="0%" style="stop-color:#6C5CE7"/>
      <stop offset="50%" style="stop-color:#A855F7"/>
      <stop offset="100%" style="stop-color:#D946EF"/>
    </linearGradient>
    <linearGradient id="glow" x1="0%" y1="0%" x2="100%" y2="100%">
      <stop offset="0%" style="stop-color:#E0D4FF"/>
      <stop offset="100%" style="stop-color:#FFFFFF"/>
    </linearGradient>
  </defs>
  <!-- Rounded square background -->
  <rect width="512" height="512" rx="108" ry="108" fill="url(#bg)"/>
  <!-- Main 4-point sparkle -->
  <path d="M256 80 C268 180, 332 244, 432 256 C332 268, 268 332, 256 432 C244 332, 180 268, 80 256 C180 244, 244 180, 256 80Z" fill="url(#glow)" opacity="0.95"/>
  <!-- Small accent sparkle top-right -->
  <path d="M380 100 C384 130, 400 146, 430 150 C400 154, 384 170, 380 200 C376 170, 360 154, 330 150 C360 146, 376 130, 380 100Z" fill="white" opacity="0.7"/>
  <!-- Tiny dot sparkle bottom-left -->
  <circle cx="140" cy="380" r="12" fill="white" opacity="0.5"/>
</svg>
